<svg
   xmlns="http://www.w3.org/2000/svg"
   x="0px"
   y="0px"
   viewBox="0 0 147 147"
   width="147"
   height="147">
<defs
   id="defs34" />
<style
   type="text/css"
   id="style2">
	.st0{fill:#3880FF;}
</style>
<g
   id="g29"
   transform="translate(-38.2,-182.3)">
	<g
   id="g12">
		<path
   class="st0"
   d="m 111.8,222.5 c -18.5,0 -33.5,15 -33.5,33.5 0,18.5 15,33.5 33.5,33.5 18.5,0 33.5,-15 33.5,-33.5 -0.1,-18.5 -15.1,-33.5 -33.5,-33.5 z"
   id="path4"
   style="fill:#3880ff" />
		<g
   id="g8">
			<circle
   class="st0"
   cx="159.8"
   cy="210.2"
   r="15.3"
   id="circle6"
   style="fill:#3880ff" />
		</g>
		<path
   class="st0"
   d="m 178.6,225.5 -0.6,-1.4 -1,1.2 c -2.5,2.8 -5.7,5 -9.2,6.3 l -1,0.4 0.4,1 c 3.1,7.3 4.6,15.1 4.6,23 0,33.1 -26.9,60.1 -60.1,60.1 -33.2,0 -60,-27 -60,-60.1 0,-33.1 26.9,-60.1 60.1,-60.1 9,0 17.6,2 25.7,5.8 l 0.9,0.4 0.4,-1 c 1.5,-3.5 3.8,-6.5 6.8,-8.9 l 1.2,-1 -1.4,-0.7 c -10.5,-5.4 -21.8,-8.2 -33.7,-8.2 -40.5,0 -73.5,33 -73.5,73.5 0,40.5 33,73.5 73.5,73.5 40.5,0 73.5,-33 73.5,-73.5 0,-10.4 -2.2,-20.6 -6.6,-30.3 z"
   id="path10"
   style="fill:#3880ff" />
	</g>
	<g
   id="g27">



	</g>
</g>
</svg>